<mxfile host="app.diagrams.net" modified="2023-04-13T12:31:50.507Z" agent="Mozilla/5.0 (Windows NT 10.0; Win64; x64) AppleWebKit/537.36 (KHTML, like Gecko) Chrome/111.0.0.0 Safari/537.36" etag="XquiOyuuB-kj0m-Jc6vB" version="21.1.7" type="device" pages="2">
  <diagram name="Phân Giã Chức Năng" id="CzGjHXiZb2hVe8jgmL7E">
    <mxGraphModel dx="1680" dy="717" grid="1" gridSize="10" guides="1" tooltips="1" connect="1" arrows="1" fold="1" page="1" pageScale="1" pageWidth="827" pageHeight="1169" math="0" shadow="0">
      <root>
        <mxCell id="0" />
        <mxCell id="1" parent="0" />
        <mxCell id="6vynl58oSbSIeXvwaCJf-1" value="&lt;font style=&quot;font-size: 14px;&quot;&gt;&lt;b&gt;Quản Lý Thư Viện&lt;/b&gt;&lt;/font&gt;" style="rounded=0;whiteSpace=wrap;html=1;" parent="1" vertex="1">
          <mxGeometry x="414" y="220" width="160" height="40" as="geometry" />
        </mxCell>
        <mxCell id="6vynl58oSbSIeXvwaCJf-2" value="" style="endArrow=none;html=1;rounded=0;entryX=0.5;entryY=1;entryDx=0;entryDy=0;" parent="1" target="6vynl58oSbSIeXvwaCJf-1" edge="1">
          <mxGeometry width="50" height="50" relative="1" as="geometry">
            <mxPoint x="494" y="320" as="sourcePoint" />
            <mxPoint x="420" y="300" as="targetPoint" />
          </mxGeometry>
        </mxCell>
        <mxCell id="6vynl58oSbSIeXvwaCJf-3" value="Quản Lý" style="rounded=0;whiteSpace=wrap;html=1;" parent="1" vertex="1">
          <mxGeometry x="90" y="360" width="110" height="40" as="geometry" />
        </mxCell>
        <mxCell id="6vynl58oSbSIeXvwaCJf-4" value="" style="endArrow=none;html=1;rounded=0;" parent="1" edge="1">
          <mxGeometry width="50" height="50" relative="1" as="geometry">
            <mxPoint x="140" y="320" as="sourcePoint" />
            <mxPoint x="830" y="320" as="targetPoint" />
            <Array as="points">
              <mxPoint x="415" y="320" />
            </Array>
          </mxGeometry>
        </mxCell>
        <mxCell id="6vynl58oSbSIeXvwaCJf-6" value="Sinh Viên" style="rounded=0;whiteSpace=wrap;html=1;" parent="1" vertex="1">
          <mxGeometry x="220" y="360" width="110" height="40" as="geometry" />
        </mxCell>
        <mxCell id="6vynl58oSbSIeXvwaCJf-7" value="Quản lý sinh viên mượn sách" style="rounded=0;whiteSpace=wrap;html=1;" parent="1" vertex="1">
          <mxGeometry x="355" y="360" width="110" height="40" as="geometry" />
        </mxCell>
        <mxCell id="6vynl58oSbSIeXvwaCJf-8" value="Chức năng quản lý sách" style="rounded=0;whiteSpace=wrap;html=1;" parent="1" vertex="1">
          <mxGeometry x="490" y="360" width="110" height="40" as="geometry" />
        </mxCell>
        <mxCell id="6vynl58oSbSIeXvwaCJf-9" value="Chức năng thống kê thông tin" style="rounded=0;whiteSpace=wrap;html=1;" parent="1" vertex="1">
          <mxGeometry x="770" y="360" width="110" height="40" as="geometry" />
        </mxCell>
        <mxCell id="6vynl58oSbSIeXvwaCJf-10" value="" style="endArrow=classic;html=1;rounded=0;" parent="1" target="6vynl58oSbSIeXvwaCJf-3" edge="1">
          <mxGeometry width="50" height="50" relative="1" as="geometry">
            <mxPoint x="145" y="320" as="sourcePoint" />
            <mxPoint x="440" y="400" as="targetPoint" />
          </mxGeometry>
        </mxCell>
        <mxCell id="6vynl58oSbSIeXvwaCJf-11" value="" style="endArrow=classic;html=1;rounded=0;" parent="1" edge="1">
          <mxGeometry width="50" height="50" relative="1" as="geometry">
            <mxPoint x="274.5" y="320" as="sourcePoint" />
            <mxPoint x="274.5" y="360" as="targetPoint" />
          </mxGeometry>
        </mxCell>
        <mxCell id="6vynl58oSbSIeXvwaCJf-12" value="" style="endArrow=classic;html=1;rounded=0;" parent="1" edge="1">
          <mxGeometry width="50" height="50" relative="1" as="geometry">
            <mxPoint x="409.5" y="320" as="sourcePoint" />
            <mxPoint x="409.5" y="360" as="targetPoint" />
          </mxGeometry>
        </mxCell>
        <mxCell id="6vynl58oSbSIeXvwaCJf-13" value="" style="endArrow=classic;html=1;rounded=0;" parent="1" edge="1">
          <mxGeometry width="50" height="50" relative="1" as="geometry">
            <mxPoint x="544.5" y="320" as="sourcePoint" />
            <mxPoint x="544.5" y="360" as="targetPoint" />
          </mxGeometry>
        </mxCell>
        <mxCell id="6vynl58oSbSIeXvwaCJf-14" value="" style="endArrow=classic;html=1;rounded=0;" parent="1" edge="1">
          <mxGeometry width="50" height="50" relative="1" as="geometry">
            <mxPoint x="670" y="320" as="sourcePoint" />
            <mxPoint x="670" y="360" as="targetPoint" />
          </mxGeometry>
        </mxCell>
        <mxCell id="6vynl58oSbSIeXvwaCJf-15" value="Đăng Nhập" style="rounded=0;whiteSpace=wrap;html=1;" parent="1" vertex="1">
          <mxGeometry x="90" y="420" width="110" height="40" as="geometry" />
        </mxCell>
        <mxCell id="6vynl58oSbSIeXvwaCJf-16" value="Đăng Xuất" style="rounded=0;whiteSpace=wrap;html=1;" parent="1" vertex="1">
          <mxGeometry x="90" y="480" width="110" height="40" as="geometry" />
        </mxCell>
        <mxCell id="6vynl58oSbSIeXvwaCJf-17" value="Mượn sách" style="rounded=0;whiteSpace=wrap;html=1;" parent="1" vertex="1">
          <mxGeometry x="220" y="420" width="110" height="40" as="geometry" />
        </mxCell>
        <mxCell id="6vynl58oSbSIeXvwaCJf-18" value="Mua Sách" style="rounded=0;whiteSpace=wrap;html=1;" parent="1" vertex="1">
          <mxGeometry x="220" y="480" width="110" height="40" as="geometry" />
        </mxCell>
        <mxCell id="6vynl58oSbSIeXvwaCJf-19" value="Trả Sách" style="rounded=0;whiteSpace=wrap;html=1;" parent="1" vertex="1">
          <mxGeometry x="220" y="545" width="110" height="40" as="geometry" />
        </mxCell>
        <mxCell id="6vynl58oSbSIeXvwaCJf-20" value="Sửa Sinh Viên" style="rounded=0;whiteSpace=wrap;html=1;" parent="1" vertex="1">
          <mxGeometry x="359" y="530" width="110" height="40" as="geometry" />
        </mxCell>
        <mxCell id="6vynl58oSbSIeXvwaCJf-21" value="Tìm Kiếm Sinh Viên" style="rounded=0;whiteSpace=wrap;html=1;" parent="1" vertex="1">
          <mxGeometry x="359" y="580" width="110" height="40" as="geometry" />
        </mxCell>
        <mxCell id="6vynl58oSbSIeXvwaCJf-22" value="Thêm Sách" style="rounded=0;whiteSpace=wrap;html=1;" parent="1" vertex="1">
          <mxGeometry x="490" y="420" width="110" height="40" as="geometry" />
        </mxCell>
        <mxCell id="6vynl58oSbSIeXvwaCJf-23" value="Sửa Sách" style="rounded=0;whiteSpace=wrap;html=1;" parent="1" vertex="1">
          <mxGeometry x="490" y="530" width="110" height="40" as="geometry" />
        </mxCell>
        <mxCell id="6vynl58oSbSIeXvwaCJf-24" value="Xóa Sách" style="rounded=0;whiteSpace=wrap;html=1;" parent="1" vertex="1">
          <mxGeometry x="490" y="480" width="110" height="40" as="geometry" />
        </mxCell>
        <mxCell id="6vynl58oSbSIeXvwaCJf-28" value="Thêm Sinh Viên" style="rounded=0;whiteSpace=wrap;html=1;" parent="1" vertex="1">
          <mxGeometry x="355" y="420" width="110" height="40" as="geometry" />
        </mxCell>
        <mxCell id="6vynl58oSbSIeXvwaCJf-29" value="Xóa Sinh Viên" style="rounded=0;whiteSpace=wrap;html=1;" parent="1" vertex="1">
          <mxGeometry x="355" y="480" width="110" height="40" as="geometry" />
        </mxCell>
        <mxCell id="6vynl58oSbSIeXvwaCJf-30" value="Ngày Mượn" style="rounded=0;whiteSpace=wrap;html=1;" parent="1" vertex="1">
          <mxGeometry x="359" y="640" width="110" height="40" as="geometry" />
        </mxCell>
        <mxCell id="6vynl58oSbSIeXvwaCJf-31" value="Sinh Viên Mượn Sách" style="rounded=0;whiteSpace=wrap;html=1;" parent="1" vertex="1">
          <mxGeometry x="770" y="420" width="110" height="40" as="geometry" />
        </mxCell>
        <mxCell id="6vynl58oSbSIeXvwaCJf-32" value="" style="endArrow=none;html=1;rounded=0;" parent="1" edge="1">
          <mxGeometry width="50" height="50" relative="1" as="geometry">
            <mxPoint x="70" y="520" as="sourcePoint" />
            <mxPoint x="70" y="360" as="targetPoint" />
          </mxGeometry>
        </mxCell>
        <mxCell id="6vynl58oSbSIeXvwaCJf-33" value="" style="endArrow=classic;html=1;rounded=0;" parent="1" edge="1">
          <mxGeometry width="50" height="50" relative="1" as="geometry">
            <mxPoint x="70" y="379.5" as="sourcePoint" />
            <mxPoint x="90" y="379.5" as="targetPoint" />
          </mxGeometry>
        </mxCell>
        <mxCell id="6vynl58oSbSIeXvwaCJf-34" value="" style="endArrow=classic;html=1;rounded=0;" parent="1" edge="1">
          <mxGeometry width="50" height="50" relative="1" as="geometry">
            <mxPoint x="70" y="439.5" as="sourcePoint" />
            <mxPoint x="90" y="439.5" as="targetPoint" />
          </mxGeometry>
        </mxCell>
        <mxCell id="6vynl58oSbSIeXvwaCJf-35" value="" style="endArrow=classic;html=1;rounded=0;" parent="1" edge="1">
          <mxGeometry width="50" height="50" relative="1" as="geometry">
            <mxPoint x="70" y="499.5" as="sourcePoint" />
            <mxPoint x="90" y="499.5" as="targetPoint" />
          </mxGeometry>
        </mxCell>
        <mxCell id="6vynl58oSbSIeXvwaCJf-43" value="" style="endArrow=none;html=1;rounded=0;" parent="1" edge="1">
          <mxGeometry width="50" height="50" relative="1" as="geometry">
            <mxPoint x="200" y="670" as="sourcePoint" />
            <mxPoint x="200" y="360" as="targetPoint" />
          </mxGeometry>
        </mxCell>
        <mxCell id="6vynl58oSbSIeXvwaCJf-44" value="" style="endArrow=classic;html=1;rounded=0;" parent="1" edge="1">
          <mxGeometry width="50" height="50" relative="1" as="geometry">
            <mxPoint x="200" y="379.5" as="sourcePoint" />
            <mxPoint x="220" y="379.5" as="targetPoint" />
          </mxGeometry>
        </mxCell>
        <mxCell id="6vynl58oSbSIeXvwaCJf-45" value="" style="endArrow=classic;html=1;rounded=0;" parent="1" edge="1">
          <mxGeometry width="50" height="50" relative="1" as="geometry">
            <mxPoint x="200" y="439.5" as="sourcePoint" />
            <mxPoint x="220" y="439.5" as="targetPoint" />
          </mxGeometry>
        </mxCell>
        <mxCell id="6vynl58oSbSIeXvwaCJf-46" value="" style="endArrow=classic;html=1;rounded=0;" parent="1" edge="1">
          <mxGeometry width="50" height="50" relative="1" as="geometry">
            <mxPoint x="200" y="499.5" as="sourcePoint" />
            <mxPoint x="220" y="499.5" as="targetPoint" />
          </mxGeometry>
        </mxCell>
        <mxCell id="6vynl58oSbSIeXvwaCJf-47" value="" style="endArrow=classic;html=1;rounded=0;entryX=0;entryY=0.5;entryDx=0;entryDy=0;" parent="1" target="6vynl58oSbSIeXvwaCJf-19" edge="1">
          <mxGeometry width="50" height="50" relative="1" as="geometry">
            <mxPoint x="200" y="565" as="sourcePoint" />
            <mxPoint x="230" y="509.5" as="targetPoint" />
          </mxGeometry>
        </mxCell>
        <mxCell id="6vynl58oSbSIeXvwaCJf-49" value="" style="endArrow=none;html=1;rounded=0;" parent="1" edge="1">
          <mxGeometry width="50" height="50" relative="1" as="geometry">
            <mxPoint x="70" y="520" as="sourcePoint" />
            <mxPoint x="70" y="360" as="targetPoint" />
          </mxGeometry>
        </mxCell>
        <mxCell id="6vynl58oSbSIeXvwaCJf-50" value="" style="endArrow=classic;html=1;rounded=0;" parent="1" edge="1">
          <mxGeometry width="50" height="50" relative="1" as="geometry">
            <mxPoint x="70" y="379.5" as="sourcePoint" />
            <mxPoint x="90" y="379.5" as="targetPoint" />
          </mxGeometry>
        </mxCell>
        <mxCell id="6vynl58oSbSIeXvwaCJf-51" value="" style="endArrow=classic;html=1;rounded=0;" parent="1" edge="1">
          <mxGeometry width="50" height="50" relative="1" as="geometry">
            <mxPoint x="70" y="439.5" as="sourcePoint" />
            <mxPoint x="90" y="439.5" as="targetPoint" />
          </mxGeometry>
        </mxCell>
        <mxCell id="6vynl58oSbSIeXvwaCJf-52" value="" style="endArrow=classic;html=1;rounded=0;" parent="1" edge="1">
          <mxGeometry width="50" height="50" relative="1" as="geometry">
            <mxPoint x="70" y="499.5" as="sourcePoint" />
            <mxPoint x="90" y="499.5" as="targetPoint" />
          </mxGeometry>
        </mxCell>
        <mxCell id="6vynl58oSbSIeXvwaCJf-59" value="" style="endArrow=none;html=1;rounded=0;" parent="1" edge="1">
          <mxGeometry width="50" height="50" relative="1" as="geometry">
            <mxPoint x="335" y="520" as="sourcePoint" />
            <mxPoint x="335" y="360" as="targetPoint" />
          </mxGeometry>
        </mxCell>
        <mxCell id="6vynl58oSbSIeXvwaCJf-60" value="" style="endArrow=classic;html=1;rounded=0;" parent="1" edge="1">
          <mxGeometry width="50" height="50" relative="1" as="geometry">
            <mxPoint x="335" y="379.5" as="sourcePoint" />
            <mxPoint x="355" y="379.5" as="targetPoint" />
          </mxGeometry>
        </mxCell>
        <mxCell id="6vynl58oSbSIeXvwaCJf-61" value="" style="endArrow=classic;html=1;rounded=0;" parent="1" edge="1">
          <mxGeometry width="50" height="50" relative="1" as="geometry">
            <mxPoint x="335" y="439.5" as="sourcePoint" />
            <mxPoint x="355" y="439.5" as="targetPoint" />
          </mxGeometry>
        </mxCell>
        <mxCell id="6vynl58oSbSIeXvwaCJf-62" value="" style="endArrow=classic;html=1;rounded=0;" parent="1" edge="1">
          <mxGeometry width="50" height="50" relative="1" as="geometry">
            <mxPoint x="335" y="499.5" as="sourcePoint" />
            <mxPoint x="355" y="499.5" as="targetPoint" />
          </mxGeometry>
        </mxCell>
        <mxCell id="6vynl58oSbSIeXvwaCJf-63" value="" style="endArrow=none;html=1;rounded=0;" parent="1" edge="1">
          <mxGeometry width="50" height="50" relative="1" as="geometry">
            <mxPoint x="335" y="520" as="sourcePoint" />
            <mxPoint x="335" y="360" as="targetPoint" />
          </mxGeometry>
        </mxCell>
        <mxCell id="6vynl58oSbSIeXvwaCJf-64" value="" style="endArrow=classic;html=1;rounded=0;" parent="1" edge="1">
          <mxGeometry width="50" height="50" relative="1" as="geometry">
            <mxPoint x="335" y="379.5" as="sourcePoint" />
            <mxPoint x="355" y="379.5" as="targetPoint" />
          </mxGeometry>
        </mxCell>
        <mxCell id="6vynl58oSbSIeXvwaCJf-65" value="" style="endArrow=classic;html=1;rounded=0;" parent="1" edge="1">
          <mxGeometry width="50" height="50" relative="1" as="geometry">
            <mxPoint x="335" y="439.5" as="sourcePoint" />
            <mxPoint x="355" y="439.5" as="targetPoint" />
          </mxGeometry>
        </mxCell>
        <mxCell id="6vynl58oSbSIeXvwaCJf-66" value="" style="endArrow=classic;html=1;rounded=0;" parent="1" edge="1">
          <mxGeometry width="50" height="50" relative="1" as="geometry">
            <mxPoint x="335" y="499.5" as="sourcePoint" />
            <mxPoint x="355" y="499.5" as="targetPoint" />
          </mxGeometry>
        </mxCell>
        <mxCell id="6vynl58oSbSIeXvwaCJf-67" value="" style="endArrow=none;html=1;rounded=0;" parent="1" edge="1">
          <mxGeometry width="50" height="50" relative="1" as="geometry">
            <mxPoint x="335" y="680" as="sourcePoint" />
            <mxPoint x="335" y="520" as="targetPoint" />
          </mxGeometry>
        </mxCell>
        <mxCell id="6vynl58oSbSIeXvwaCJf-69" value="" style="endArrow=classic;html=1;rounded=0;" parent="1" edge="1">
          <mxGeometry width="50" height="50" relative="1" as="geometry">
            <mxPoint x="335" y="599.5" as="sourcePoint" />
            <mxPoint x="355" y="599.5" as="targetPoint" />
          </mxGeometry>
        </mxCell>
        <mxCell id="6vynl58oSbSIeXvwaCJf-70" value="" style="endArrow=classic;html=1;rounded=0;" parent="1" edge="1">
          <mxGeometry width="50" height="50" relative="1" as="geometry">
            <mxPoint x="335" y="659.5" as="sourcePoint" />
            <mxPoint x="355" y="659.5" as="targetPoint" />
          </mxGeometry>
        </mxCell>
        <mxCell id="6vynl58oSbSIeXvwaCJf-71" value="" style="endArrow=none;html=1;rounded=0;" parent="1" edge="1">
          <mxGeometry width="50" height="50" relative="1" as="geometry">
            <mxPoint x="335" y="690" as="sourcePoint" />
            <mxPoint x="335" y="520" as="targetPoint" />
          </mxGeometry>
        </mxCell>
        <mxCell id="6vynl58oSbSIeXvwaCJf-72" value="" style="endArrow=classic;html=1;rounded=0;entryX=0;entryY=0.5;entryDx=0;entryDy=0;" parent="1" target="6vynl58oSbSIeXvwaCJf-20" edge="1">
          <mxGeometry width="50" height="50" relative="1" as="geometry">
            <mxPoint x="335" y="550" as="sourcePoint" />
            <mxPoint x="355" y="539.5" as="targetPoint" />
          </mxGeometry>
        </mxCell>
        <mxCell id="6vynl58oSbSIeXvwaCJf-73" value="" style="endArrow=classic;html=1;rounded=0;" parent="1" edge="1">
          <mxGeometry width="50" height="50" relative="1" as="geometry">
            <mxPoint x="335" y="599.5" as="sourcePoint" />
            <mxPoint x="355" y="599.5" as="targetPoint" />
          </mxGeometry>
        </mxCell>
        <mxCell id="6vynl58oSbSIeXvwaCJf-75" value="" style="endArrow=none;html=1;rounded=0;" parent="1" edge="1">
          <mxGeometry width="50" height="50" relative="1" as="geometry">
            <mxPoint x="465" y="520" as="sourcePoint" />
            <mxPoint x="465" y="360" as="targetPoint" />
          </mxGeometry>
        </mxCell>
        <mxCell id="6vynl58oSbSIeXvwaCJf-76" value="" style="endArrow=classic;html=1;rounded=0;" parent="1" edge="1">
          <mxGeometry width="50" height="50" relative="1" as="geometry">
            <mxPoint x="465" y="379.5" as="sourcePoint" />
            <mxPoint x="485" y="379.5" as="targetPoint" />
          </mxGeometry>
        </mxCell>
        <mxCell id="6vynl58oSbSIeXvwaCJf-77" value="" style="endArrow=classic;html=1;rounded=0;" parent="1" edge="1">
          <mxGeometry width="50" height="50" relative="1" as="geometry">
            <mxPoint x="465" y="439.5" as="sourcePoint" />
            <mxPoint x="485" y="439.5" as="targetPoint" />
          </mxGeometry>
        </mxCell>
        <mxCell id="6vynl58oSbSIeXvwaCJf-78" value="" style="endArrow=classic;html=1;rounded=0;" parent="1" edge="1">
          <mxGeometry width="50" height="50" relative="1" as="geometry">
            <mxPoint x="465" y="499.5" as="sourcePoint" />
            <mxPoint x="485" y="499.5" as="targetPoint" />
          </mxGeometry>
        </mxCell>
        <mxCell id="6vynl58oSbSIeXvwaCJf-79" value="" style="endArrow=none;html=1;rounded=0;" parent="1" edge="1">
          <mxGeometry width="50" height="50" relative="1" as="geometry">
            <mxPoint x="465" y="520" as="sourcePoint" />
            <mxPoint x="465" y="360" as="targetPoint" />
          </mxGeometry>
        </mxCell>
        <mxCell id="6vynl58oSbSIeXvwaCJf-80" value="" style="endArrow=classic;html=1;rounded=0;" parent="1" edge="1">
          <mxGeometry width="50" height="50" relative="1" as="geometry">
            <mxPoint x="465" y="379.5" as="sourcePoint" />
            <mxPoint x="485" y="379.5" as="targetPoint" />
          </mxGeometry>
        </mxCell>
        <mxCell id="6vynl58oSbSIeXvwaCJf-81" value="" style="endArrow=classic;html=1;rounded=0;" parent="1" edge="1">
          <mxGeometry width="50" height="50" relative="1" as="geometry">
            <mxPoint x="465" y="439.5" as="sourcePoint" />
            <mxPoint x="485" y="439.5" as="targetPoint" />
          </mxGeometry>
        </mxCell>
        <mxCell id="6vynl58oSbSIeXvwaCJf-82" value="" style="endArrow=classic;html=1;rounded=0;" parent="1" edge="1">
          <mxGeometry width="50" height="50" relative="1" as="geometry">
            <mxPoint x="465" y="499.5" as="sourcePoint" />
            <mxPoint x="485" y="499.5" as="targetPoint" />
          </mxGeometry>
        </mxCell>
        <mxCell id="6vynl58oSbSIeXvwaCJf-83" value="" style="endArrow=classic;html=1;rounded=0;exitX=1;exitY=0.5;exitDx=0;exitDy=0;entryX=0;entryY=0.5;entryDx=0;entryDy=0;" parent="1" source="6vynl58oSbSIeXvwaCJf-20" target="6vynl58oSbSIeXvwaCJf-23" edge="1">
          <mxGeometry width="50" height="50" relative="1" as="geometry">
            <mxPoint x="475" y="509.5" as="sourcePoint" />
            <mxPoint x="495" y="509.5" as="targetPoint" />
          </mxGeometry>
        </mxCell>
        <mxCell id="6vynl58oSbSIeXvwaCJf-95" value="" style="endArrow=none;html=1;rounded=0;" parent="1" edge="1">
          <mxGeometry width="50" height="50" relative="1" as="geometry">
            <mxPoint x="600" y="520" as="sourcePoint" />
            <mxPoint x="600" y="360" as="targetPoint" />
          </mxGeometry>
        </mxCell>
        <mxCell id="6vynl58oSbSIeXvwaCJf-96" value="" style="endArrow=classic;html=1;rounded=0;" parent="1" edge="1">
          <mxGeometry width="50" height="50" relative="1" as="geometry">
            <mxPoint x="600" y="379.5" as="sourcePoint" />
            <mxPoint x="620" y="379.5" as="targetPoint" />
          </mxGeometry>
        </mxCell>
        <mxCell id="6vynl58oSbSIeXvwaCJf-97" value="" style="endArrow=classic;html=1;rounded=0;" parent="1" edge="1">
          <mxGeometry width="50" height="50" relative="1" as="geometry">
            <mxPoint x="600" y="439.5" as="sourcePoint" />
            <mxPoint x="620" y="439.5" as="targetPoint" />
          </mxGeometry>
        </mxCell>
        <mxCell id="6vynl58oSbSIeXvwaCJf-99" value="" style="endArrow=none;html=1;rounded=0;" parent="1" edge="1">
          <mxGeometry width="50" height="50" relative="1" as="geometry">
            <mxPoint x="600" y="460" as="sourcePoint" />
            <mxPoint x="600" y="360" as="targetPoint" />
          </mxGeometry>
        </mxCell>
        <mxCell id="6vynl58oSbSIeXvwaCJf-100" value="" style="endArrow=classic;html=1;rounded=0;" parent="1" edge="1">
          <mxGeometry width="50" height="50" relative="1" as="geometry">
            <mxPoint x="600" y="379.5" as="sourcePoint" />
            <mxPoint x="620" y="379.5" as="targetPoint" />
          </mxGeometry>
        </mxCell>
        <mxCell id="6vynl58oSbSIeXvwaCJf-101" value="" style="endArrow=classic;html=1;rounded=0;" parent="1" edge="1">
          <mxGeometry width="50" height="50" relative="1" as="geometry">
            <mxPoint x="600" y="439.5" as="sourcePoint" />
            <mxPoint x="620" y="439.5" as="targetPoint" />
          </mxGeometry>
        </mxCell>
        <mxCell id="6vynl58oSbSIeXvwaCJf-103" value="Tìm Sách" style="rounded=0;whiteSpace=wrap;html=1;" parent="1" vertex="1">
          <mxGeometry x="490" y="580" width="110" height="40" as="geometry" />
        </mxCell>
        <mxCell id="6vynl58oSbSIeXvwaCJf-106" value="" style="endArrow=classic;html=1;rounded=0;" parent="1" edge="1">
          <mxGeometry width="50" height="50" relative="1" as="geometry">
            <mxPoint x="470" y="599.5" as="sourcePoint" />
            <mxPoint x="490" y="599.5" as="targetPoint" />
          </mxGeometry>
        </mxCell>
        <mxCell id="HZL2ppXBZhMt0bQLDJqv-1" value="Đăng Ký" style="rounded=0;whiteSpace=wrap;html=1;" parent="1" vertex="1">
          <mxGeometry x="220" y="600" width="110" height="40" as="geometry" />
        </mxCell>
        <mxCell id="HZL2ppXBZhMt0bQLDJqv-2" value="" style="endArrow=classic;html=1;rounded=0;entryX=0;entryY=0.5;entryDx=0;entryDy=0;" parent="1" target="HZL2ppXBZhMt0bQLDJqv-1" edge="1">
          <mxGeometry width="50" height="50" relative="1" as="geometry">
            <mxPoint x="200" y="620" as="sourcePoint" />
            <mxPoint x="230" y="575" as="targetPoint" />
          </mxGeometry>
        </mxCell>
        <mxCell id="edfVF77OYH3oIoKbHT45-1" value="Đăng Nhập" style="rounded=0;whiteSpace=wrap;html=1;" parent="1" vertex="1">
          <mxGeometry x="220" y="650" width="110" height="40" as="geometry" />
        </mxCell>
        <mxCell id="edfVF77OYH3oIoKbHT45-2" value="" style="endArrow=classic;html=1;rounded=0;entryX=0;entryY=0.5;entryDx=0;entryDy=0;" parent="1" target="edfVF77OYH3oIoKbHT45-1" edge="1">
          <mxGeometry width="50" height="50" relative="1" as="geometry">
            <mxPoint x="200" y="670" as="sourcePoint" />
            <mxPoint x="230" y="630" as="targetPoint" />
          </mxGeometry>
        </mxCell>
        <mxCell id="GxEBwAgXZK8rMoCJzhUp-1" value="Chức Năng quản lý tài khoản" style="rounded=0;whiteSpace=wrap;html=1;" parent="1" vertex="1">
          <mxGeometry x="630" y="360" width="110" height="40" as="geometry" />
        </mxCell>
        <mxCell id="GxEBwAgXZK8rMoCJzhUp-2" value="Thêm Tài Khoản" style="rounded=0;whiteSpace=wrap;html=1;" parent="1" vertex="1">
          <mxGeometry x="630" y="420" width="110" height="40" as="geometry" />
        </mxCell>
        <mxCell id="GxEBwAgXZK8rMoCJzhUp-3" value="Sửa Tài Khoản" style="rounded=0;whiteSpace=wrap;html=1;" parent="1" vertex="1">
          <mxGeometry x="630" y="480" width="110" height="40" as="geometry" />
        </mxCell>
        <mxCell id="GxEBwAgXZK8rMoCJzhUp-4" value="Xóa Tài Khoản" style="rounded=0;whiteSpace=wrap;html=1;" parent="1" vertex="1">
          <mxGeometry x="630" y="530" width="110" height="40" as="geometry" />
        </mxCell>
        <mxCell id="GxEBwAgXZK8rMoCJzhUp-5" value="Tìm Kiếm Tài Khoản" style="rounded=0;whiteSpace=wrap;html=1;" parent="1" vertex="1">
          <mxGeometry x="630" y="585" width="110" height="40" as="geometry" />
        </mxCell>
        <mxCell id="GxEBwAgXZK8rMoCJzhUp-6" value="" style="endArrow=classic;html=1;rounded=0;" parent="1" edge="1">
          <mxGeometry width="50" height="50" relative="1" as="geometry">
            <mxPoint x="827" y="320" as="sourcePoint" />
            <mxPoint x="827" y="360" as="targetPoint" />
          </mxGeometry>
        </mxCell>
        <mxCell id="GxEBwAgXZK8rMoCJzhUp-8" value="" style="endArrow=classic;html=1;rounded=0;" parent="1" edge="1">
          <mxGeometry width="50" height="50" relative="1" as="geometry">
            <mxPoint x="600" y="499.5" as="sourcePoint" />
            <mxPoint x="620" y="499.5" as="targetPoint" />
          </mxGeometry>
        </mxCell>
        <mxCell id="GxEBwAgXZK8rMoCJzhUp-11" value="" style="endArrow=classic;html=1;rounded=0;" parent="1" edge="1">
          <mxGeometry width="50" height="50" relative="1" as="geometry">
            <mxPoint x="600" y="549.5" as="sourcePoint" />
            <mxPoint x="620" y="549.5" as="targetPoint" />
          </mxGeometry>
        </mxCell>
        <mxCell id="GxEBwAgXZK8rMoCJzhUp-12" value="" style="endArrow=classic;html=1;rounded=0;" parent="1" edge="1">
          <mxGeometry width="50" height="50" relative="1" as="geometry">
            <mxPoint x="600" y="599" as="sourcePoint" />
            <mxPoint x="620" y="599" as="targetPoint" />
          </mxGeometry>
        </mxCell>
        <mxCell id="GxEBwAgXZK8rMoCJzhUp-13" value="" style="endArrow=classic;html=1;rounded=0;" parent="1" edge="1">
          <mxGeometry width="50" height="50" relative="1" as="geometry">
            <mxPoint x="740" y="379.5" as="sourcePoint" />
            <mxPoint x="760" y="379.5" as="targetPoint" />
          </mxGeometry>
        </mxCell>
        <mxCell id="GxEBwAgXZK8rMoCJzhUp-14" value="" style="endArrow=classic;html=1;rounded=0;" parent="1" edge="1">
          <mxGeometry width="50" height="50" relative="1" as="geometry">
            <mxPoint x="740" y="439.5" as="sourcePoint" />
            <mxPoint x="760" y="439.5" as="targetPoint" />
          </mxGeometry>
        </mxCell>
        <mxCell id="GxEBwAgXZK8rMoCJzhUp-15" value="Tạo Báo Cáo" style="rounded=0;whiteSpace=wrap;html=1;" parent="1" vertex="1">
          <mxGeometry x="770" y="480" width="110" height="40" as="geometry" />
        </mxCell>
        <mxCell id="GxEBwAgXZK8rMoCJzhUp-16" value="" style="endArrow=classic;html=1;rounded=0;" parent="1" edge="1">
          <mxGeometry width="50" height="50" relative="1" as="geometry">
            <mxPoint x="740" y="499.5" as="sourcePoint" />
            <mxPoint x="760" y="499.5" as="targetPoint" />
          </mxGeometry>
        </mxCell>
      </root>
    </mxGraphModel>
  </diagram>
  <diagram id="qaw7oN3vgkNQo6T6qVQO" name="Biểu Đồ Lớp">
    <mxGraphModel dx="2787" dy="837" grid="1" gridSize="10" guides="1" tooltips="1" connect="1" arrows="1" fold="1" page="1" pageScale="1" pageWidth="827" pageHeight="1169" math="0" shadow="0">
      <root>
        <mxCell id="0" />
        <mxCell id="1" parent="0" />
        <mxCell id="OhgYONSp_qSMefyA4z07-1" value="FERSON" style="swimlane;fontStyle=1;align=center;verticalAlign=top;childLayout=stackLayout;horizontal=1;startSize=26;horizontalStack=0;resizeParent=1;resizeParentMax=0;resizeLast=0;collapsible=1;marginBottom=0;whiteSpace=wrap;html=1;" parent="1" vertex="1">
          <mxGeometry x="340" y="121" width="160" height="108" as="geometry" />
        </mxCell>
        <mxCell id="OhgYONSp_qSMefyA4z07-2" value="#HoTen: string&lt;br&gt;#ngaysinh: string&lt;br&gt;#diaChi: string&lt;br&gt;#soDienThoai: string" style="text;strokeColor=none;fillColor=none;align=left;verticalAlign=top;spacingLeft=4;spacingRight=4;overflow=hidden;rotatable=0;points=[[0,0.5],[1,0.5]];portConstraint=eastwest;whiteSpace=wrap;html=1;" parent="OhgYONSp_qSMefyA4z07-1" vertex="1">
          <mxGeometry y="26" width="160" height="74" as="geometry" />
        </mxCell>
        <mxCell id="OhgYONSp_qSMefyA4z07-3" value="" style="line;strokeWidth=1;fillColor=none;align=left;verticalAlign=middle;spacingTop=-1;spacingLeft=3;spacingRight=3;rotatable=0;labelPosition=right;points=[];portConstraint=eastwest;strokeColor=inherit;" parent="OhgYONSp_qSMefyA4z07-1" vertex="1">
          <mxGeometry y="100" width="160" height="8" as="geometry" />
        </mxCell>
        <mxCell id="OhgYONSp_qSMefyA4z07-5" value="Quản Lý" style="swimlane;fontStyle=1;align=center;verticalAlign=top;childLayout=stackLayout;horizontal=1;startSize=26;horizontalStack=0;resizeParent=1;resizeParentMax=0;resizeLast=0;collapsible=1;marginBottom=0;whiteSpace=wrap;html=1;" parent="1" vertex="1">
          <mxGeometry x="120" y="240" width="170" height="270" as="geometry" />
        </mxCell>
        <mxCell id="OhgYONSp_qSMefyA4z07-6" value="-MaQL: string" style="text;strokeColor=none;fillColor=none;align=left;verticalAlign=top;spacingLeft=4;spacingRight=4;overflow=hidden;rotatable=0;points=[[0,0.5],[1,0.5]];portConstraint=eastwest;whiteSpace=wrap;html=1;" parent="OhgYONSp_qSMefyA4z07-5" vertex="1">
          <mxGeometry y="26" width="170" height="34" as="geometry" />
        </mxCell>
        <mxCell id="OhgYONSp_qSMefyA4z07-7" value="" style="line;strokeWidth=1;fillColor=none;align=left;verticalAlign=middle;spacingTop=-1;spacingLeft=3;spacingRight=3;rotatable=0;labelPosition=right;points=[];portConstraint=eastwest;strokeColor=inherit;" parent="OhgYONSp_qSMefyA4z07-5" vertex="1">
          <mxGeometry y="60" width="170" height="8" as="geometry" />
        </mxCell>
        <mxCell id="OhgYONSp_qSMefyA4z07-8" value="+, ThemSach()&lt;br&gt;+, SuaSach()&lt;br&gt;+, XoaSach()&lt;br&gt;+, TimKiemSach()&lt;br&gt;+, ThemSinhVien()&lt;br&gt;+, SuaSInhVien()&lt;br&gt;+, XoaSinhVien()&lt;br&gt;+, TimKiemSinhVien()&lt;br&gt;+, ThemTaiKhoan()&lt;br&gt;+, SuaTaiKhoan()&lt;br&gt;+, XoaTaiKhoan()&lt;br&gt;+, XemSVMuonSach()&lt;br&gt;+, TaoBaoCaoSVMuonSach()" style="text;strokeColor=none;fillColor=none;align=left;verticalAlign=top;spacingLeft=4;spacingRight=4;overflow=hidden;rotatable=0;points=[[0,0.5],[1,0.5]];portConstraint=eastwest;whiteSpace=wrap;html=1;" parent="OhgYONSp_qSMefyA4z07-5" vertex="1">
          <mxGeometry y="68" width="170" height="202" as="geometry" />
        </mxCell>
        <mxCell id="OhgYONSp_qSMefyA4z07-9" value="Sinh Viên" style="swimlane;fontStyle=1;align=center;verticalAlign=top;childLayout=stackLayout;horizontal=1;startSize=26;horizontalStack=0;resizeParent=1;resizeParentMax=0;resizeLast=0;collapsible=1;marginBottom=0;whiteSpace=wrap;html=1;" parent="1" vertex="1">
          <mxGeometry x="550" y="274" width="160" height="190" as="geometry" />
        </mxCell>
        <mxCell id="OhgYONSp_qSMefyA4z07-10" value="-MaSV: string&lt;br style=&quot;border-color: var(--border-color);&quot;&gt;-Lop: string&lt;br&gt;-tien: float" style="text;strokeColor=none;fillColor=none;align=left;verticalAlign=top;spacingLeft=4;spacingRight=4;overflow=hidden;rotatable=0;points=[[0,0.5],[1,0.5]];portConstraint=eastwest;whiteSpace=wrap;html=1;" parent="OhgYONSp_qSMefyA4z07-9" vertex="1">
          <mxGeometry y="26" width="160" height="54" as="geometry" />
        </mxCell>
        <mxCell id="OhgYONSp_qSMefyA4z07-11" value="" style="line;strokeWidth=1;fillColor=none;align=left;verticalAlign=middle;spacingTop=-1;spacingLeft=3;spacingRight=3;rotatable=0;labelPosition=right;points=[];portConstraint=eastwest;strokeColor=inherit;" parent="OhgYONSp_qSMefyA4z07-9" vertex="1">
          <mxGeometry y="80" width="160" height="8" as="geometry" />
        </mxCell>
        <mxCell id="OhgYONSp_qSMefyA4z07-12" value="+, dangNhap()&lt;br&gt;+, dangKy()&lt;br&gt;+, MuonSach()&lt;br&gt;+, TimSach()&lt;br&gt;+, MuaSach()&lt;br&gt;+, TraSach()" style="text;strokeColor=none;fillColor=none;align=left;verticalAlign=top;spacingLeft=4;spacingRight=4;overflow=hidden;rotatable=0;points=[[0,0.5],[1,0.5]];portConstraint=eastwest;whiteSpace=wrap;html=1;" parent="OhgYONSp_qSMefyA4z07-9" vertex="1">
          <mxGeometry y="88" width="160" height="102" as="geometry" />
        </mxCell>
        <mxCell id="LEKd2ifqKl6_u8c_S4HN-1" value="Quản Lý Sinh Viên" style="swimlane;fontStyle=1;align=center;verticalAlign=top;childLayout=stackLayout;horizontal=1;startSize=26;horizontalStack=0;resizeParent=1;resizeParentMax=0;resizeLast=0;collapsible=1;marginBottom=0;whiteSpace=wrap;html=1;" parent="1" vertex="1">
          <mxGeometry x="334" y="330" width="160" height="78" as="geometry" />
        </mxCell>
        <mxCell id="LEKd2ifqKl6_u8c_S4HN-2" value="-MaSV: string&lt;br&gt;-MaQL: string" style="text;strokeColor=none;fillColor=none;align=left;verticalAlign=top;spacingLeft=4;spacingRight=4;overflow=hidden;rotatable=0;points=[[0,0.5],[1,0.5]];portConstraint=eastwest;whiteSpace=wrap;html=1;" parent="LEKd2ifqKl6_u8c_S4HN-1" vertex="1">
          <mxGeometry y="26" width="160" height="44" as="geometry" />
        </mxCell>
        <mxCell id="LEKd2ifqKl6_u8c_S4HN-3" value="" style="line;strokeWidth=1;fillColor=none;align=left;verticalAlign=middle;spacingTop=-1;spacingLeft=3;spacingRight=3;rotatable=0;labelPosition=right;points=[];portConstraint=eastwest;strokeColor=inherit;" parent="LEKd2ifqKl6_u8c_S4HN-1" vertex="1">
          <mxGeometry y="70" width="160" height="8" as="geometry" />
        </mxCell>
        <mxCell id="LEKd2ifqKl6_u8c_S4HN-5" value="Sách" style="swimlane;fontStyle=1;align=center;verticalAlign=top;childLayout=stackLayout;horizontal=1;startSize=26;horizontalStack=0;resizeParent=1;resizeParentMax=0;resizeLast=0;collapsible=1;marginBottom=0;whiteSpace=wrap;html=1;" parent="1" vertex="1">
          <mxGeometry x="160" y="638" width="160" height="118" as="geometry" />
        </mxCell>
        <mxCell id="LEKd2ifqKl6_u8c_S4HN-6" value="-Masach: string&lt;br&gt;-TenSach: string&lt;br&gt;-soTien: float&lt;br&gt;-loaiSach: string" style="text;strokeColor=none;fillColor=none;align=left;verticalAlign=top;spacingLeft=4;spacingRight=4;overflow=hidden;rotatable=0;points=[[0,0.5],[1,0.5]];portConstraint=eastwest;whiteSpace=wrap;html=1;" parent="LEKd2ifqKl6_u8c_S4HN-5" vertex="1">
          <mxGeometry y="26" width="160" height="84" as="geometry" />
        </mxCell>
        <mxCell id="LEKd2ifqKl6_u8c_S4HN-7" value="" style="line;strokeWidth=1;fillColor=none;align=left;verticalAlign=middle;spacingTop=-1;spacingLeft=3;spacingRight=3;rotatable=0;labelPosition=right;points=[];portConstraint=eastwest;strokeColor=inherit;" parent="LEKd2ifqKl6_u8c_S4HN-5" vertex="1">
          <mxGeometry y="110" width="160" height="8" as="geometry" />
        </mxCell>
        <mxCell id="LEKd2ifqKl6_u8c_S4HN-12" value="Mượn" style="swimlane;fontStyle=1;align=center;verticalAlign=top;childLayout=stackLayout;horizontal=1;startSize=26;horizontalStack=0;resizeParent=1;resizeParentMax=0;resizeLast=0;collapsible=1;marginBottom=0;whiteSpace=wrap;html=1;" parent="1" vertex="1">
          <mxGeometry x="334" y="432" width="160" height="88" as="geometry" />
        </mxCell>
        <mxCell id="LEKd2ifqKl6_u8c_S4HN-13" value="-, MaSV: string&lt;br&gt;- MaSach:string&lt;br&gt;-NgayMuon: string" style="text;strokeColor=none;fillColor=none;align=left;verticalAlign=top;spacingLeft=4;spacingRight=4;overflow=hidden;rotatable=0;points=[[0,0.5],[1,0.5]];portConstraint=eastwest;whiteSpace=wrap;html=1;" parent="LEKd2ifqKl6_u8c_S4HN-12" vertex="1">
          <mxGeometry y="26" width="160" height="54" as="geometry" />
        </mxCell>
        <mxCell id="LEKd2ifqKl6_u8c_S4HN-14" value="" style="line;strokeWidth=1;fillColor=none;align=left;verticalAlign=middle;spacingTop=-1;spacingLeft=3;spacingRight=3;rotatable=0;labelPosition=right;points=[];portConstraint=eastwest;strokeColor=inherit;" parent="LEKd2ifqKl6_u8c_S4HN-12" vertex="1">
          <mxGeometry y="80" width="160" height="8" as="geometry" />
        </mxCell>
        <mxCell id="LEKd2ifqKl6_u8c_S4HN-16" value="Quản Lý Tải Khoản" style="swimlane;fontStyle=1;align=center;verticalAlign=top;childLayout=stackLayout;horizontal=1;startSize=26;horizontalStack=0;resizeParent=1;resizeParentMax=0;resizeLast=0;collapsible=1;marginBottom=0;whiteSpace=wrap;html=1;" parent="1" vertex="1">
          <mxGeometry x="340" y="550" width="160" height="88" as="geometry" />
        </mxCell>
        <mxCell id="LEKd2ifqKl6_u8c_S4HN-17" value="-, MaQL: string&lt;br&gt;-, MaTK: string" style="text;strokeColor=none;fillColor=none;align=left;verticalAlign=top;spacingLeft=4;spacingRight=4;overflow=hidden;rotatable=0;points=[[0,0.5],[1,0.5]];portConstraint=eastwest;whiteSpace=wrap;html=1;" parent="LEKd2ifqKl6_u8c_S4HN-16" vertex="1">
          <mxGeometry y="26" width="160" height="54" as="geometry" />
        </mxCell>
        <mxCell id="LEKd2ifqKl6_u8c_S4HN-18" value="" style="line;strokeWidth=1;fillColor=none;align=left;verticalAlign=middle;spacingTop=-1;spacingLeft=3;spacingRight=3;rotatable=0;labelPosition=right;points=[];portConstraint=eastwest;strokeColor=inherit;" parent="LEKd2ifqKl6_u8c_S4HN-16" vertex="1">
          <mxGeometry y="80" width="160" height="8" as="geometry" />
        </mxCell>
        <mxCell id="LEKd2ifqKl6_u8c_S4HN-20" value="Quản Lý Sách" style="swimlane;fontStyle=1;align=center;verticalAlign=top;childLayout=stackLayout;horizontal=1;startSize=26;horizontalStack=0;resizeParent=1;resizeParentMax=0;resizeLast=0;collapsible=1;marginBottom=0;whiteSpace=wrap;html=1;" parent="1" vertex="1">
          <mxGeometry x="10" y="530" width="160" height="88" as="geometry" />
        </mxCell>
        <mxCell id="LEKd2ifqKl6_u8c_S4HN-21" value="- MaQL: string&lt;br&gt;- MaSach:string" style="text;strokeColor=none;fillColor=none;align=left;verticalAlign=top;spacingLeft=4;spacingRight=4;overflow=hidden;rotatable=0;points=[[0,0.5],[1,0.5]];portConstraint=eastwest;whiteSpace=wrap;html=1;" parent="LEKd2ifqKl6_u8c_S4HN-20" vertex="1">
          <mxGeometry y="26" width="160" height="54" as="geometry" />
        </mxCell>
        <mxCell id="LEKd2ifqKl6_u8c_S4HN-22" value="" style="line;strokeWidth=1;fillColor=none;align=left;verticalAlign=middle;spacingTop=-1;spacingLeft=3;spacingRight=3;rotatable=0;labelPosition=right;points=[];portConstraint=eastwest;strokeColor=inherit;" parent="LEKd2ifqKl6_u8c_S4HN-20" vertex="1">
          <mxGeometry y="80" width="160" height="8" as="geometry" />
        </mxCell>
        <mxCell id="LEKd2ifqKl6_u8c_S4HN-23" value="Extends" style="endArrow=block;endSize=16;endFill=0;html=1;rounded=0;exitX=0.5;exitY=0;exitDx=0;exitDy=0;entryX=0;entryY=0.5;entryDx=0;entryDy=0;" parent="1" source="OhgYONSp_qSMefyA4z07-5" target="OhgYONSp_qSMefyA4z07-2" edge="1">
          <mxGeometry width="160" relative="1" as="geometry">
            <mxPoint x="254" y="280" as="sourcePoint" />
            <mxPoint x="330" y="250" as="targetPoint" />
          </mxGeometry>
        </mxCell>
        <mxCell id="LEKd2ifqKl6_u8c_S4HN-24" value="Extends" style="endArrow=block;endSize=16;endFill=0;html=1;rounded=0;exitX=0.25;exitY=0;exitDx=0;exitDy=0;entryX=1.02;entryY=0.776;entryDx=0;entryDy=0;entryPerimeter=0;" parent="1" source="OhgYONSp_qSMefyA4z07-9" target="OhgYONSp_qSMefyA4z07-2" edge="1">
          <mxGeometry width="160" relative="1" as="geometry">
            <mxPoint x="610" y="294" as="sourcePoint" />
            <mxPoint x="740" y="244" as="targetPoint" />
          </mxGeometry>
        </mxCell>
        <mxCell id="LEKd2ifqKl6_u8c_S4HN-26" value="" style="endArrow=none;html=1;rounded=0;exitX=1.015;exitY=0.319;exitDx=0;exitDy=0;exitPerimeter=0;entryX=0;entryY=0.5;entryDx=0;entryDy=0;" parent="1" source="OhgYONSp_qSMefyA4z07-8" target="LEKd2ifqKl6_u8c_S4HN-2" edge="1">
          <mxGeometry width="50" height="50" relative="1" as="geometry">
            <mxPoint x="290" y="410" as="sourcePoint" />
            <mxPoint x="340" y="360" as="targetPoint" />
          </mxGeometry>
        </mxCell>
        <mxCell id="LEKd2ifqKl6_u8c_S4HN-28" value="1..*" style="edgeLabel;html=1;align=center;verticalAlign=middle;resizable=0;points=[];" parent="LEKd2ifqKl6_u8c_S4HN-26" vertex="1" connectable="0">
          <mxGeometry x="-0.4239" y="-1" relative="1" as="geometry">
            <mxPoint y="1" as="offset" />
          </mxGeometry>
        </mxCell>
        <mxCell id="LEKd2ifqKl6_u8c_S4HN-27" value="" style="endArrow=none;html=1;rounded=0;entryX=0;entryY=0.5;entryDx=0;entryDy=0;exitX=1;exitY=0.5;exitDx=0;exitDy=0;" parent="1" source="LEKd2ifqKl6_u8c_S4HN-2" target="OhgYONSp_qSMefyA4z07-12" edge="1">
          <mxGeometry width="50" height="50" relative="1" as="geometry">
            <mxPoint x="490" y="378" as="sourcePoint" />
            <mxPoint x="482" y="376" as="targetPoint" />
          </mxGeometry>
        </mxCell>
        <mxCell id="LEKd2ifqKl6_u8c_S4HN-29" value="1..*" style="edgeLabel;html=1;align=center;verticalAlign=middle;resizable=0;points=[];" parent="LEKd2ifqKl6_u8c_S4HN-27" vertex="1" connectable="0">
          <mxGeometry x="0.3887" y="-3" relative="1" as="geometry">
            <mxPoint y="-1" as="offset" />
          </mxGeometry>
        </mxCell>
        <mxCell id="LEKd2ifqKl6_u8c_S4HN-31" value="" style="endArrow=none;html=1;rounded=0;exitX=0.5;exitY=0;exitDx=0;exitDy=0;entryX=0;entryY=0.5;entryDx=0;entryDy=0;" parent="1" source="LEKd2ifqKl6_u8c_S4HN-5" target="LEKd2ifqKl6_u8c_S4HN-13" edge="1">
          <mxGeometry width="50" height="50" relative="1" as="geometry">
            <mxPoint x="230" y="601" as="sourcePoint" />
            <mxPoint x="282" y="569" as="targetPoint" />
          </mxGeometry>
        </mxCell>
        <mxCell id="LEKd2ifqKl6_u8c_S4HN-32" value="1..*" style="edgeLabel;html=1;align=center;verticalAlign=middle;resizable=0;points=[];" parent="LEKd2ifqKl6_u8c_S4HN-31" vertex="1" connectable="0">
          <mxGeometry x="-0.4239" y="-1" relative="1" as="geometry">
            <mxPoint y="1" as="offset" />
          </mxGeometry>
        </mxCell>
        <mxCell id="LEKd2ifqKl6_u8c_S4HN-33" value="" style="endArrow=none;html=1;rounded=0;exitX=1;exitY=0.5;exitDx=0;exitDy=0;entryX=0;entryY=0.5;entryDx=0;entryDy=0;" parent="1" source="LEKd2ifqKl6_u8c_S4HN-13" edge="1">
          <mxGeometry width="50" height="50" relative="1" as="geometry">
            <mxPoint x="488" y="492" as="sourcePoint" />
            <mxPoint x="540" y="460" as="targetPoint" />
          </mxGeometry>
        </mxCell>
        <mxCell id="LEKd2ifqKl6_u8c_S4HN-34" value="1..*" style="edgeLabel;html=1;align=center;verticalAlign=middle;resizable=0;points=[];" parent="LEKd2ifqKl6_u8c_S4HN-33" vertex="1" connectable="0">
          <mxGeometry x="-0.4239" y="-1" relative="1" as="geometry">
            <mxPoint y="1" as="offset" />
          </mxGeometry>
        </mxCell>
        <mxCell id="LEKd2ifqKl6_u8c_S4HN-35" value="" style="endArrow=none;html=1;rounded=0;exitX=0.25;exitY=0;exitDx=0;exitDy=0;entryX=1;entryY=0.5;entryDx=0;entryDy=0;" parent="1" source="UMwlLcL4P6ctVUkQu1In-10" target="LEKd2ifqKl6_u8c_S4HN-17" edge="1">
          <mxGeometry width="50" height="50" relative="1" as="geometry">
            <mxPoint x="630" y="620" as="sourcePoint" />
            <mxPoint x="612" y="518" as="targetPoint" />
          </mxGeometry>
        </mxCell>
        <mxCell id="LEKd2ifqKl6_u8c_S4HN-36" value="1..*" style="edgeLabel;html=1;align=center;verticalAlign=middle;resizable=0;points=[];" parent="LEKd2ifqKl6_u8c_S4HN-35" vertex="1" connectable="0">
          <mxGeometry x="-0.4239" y="-1" relative="1" as="geometry">
            <mxPoint y="1" as="offset" />
          </mxGeometry>
        </mxCell>
        <mxCell id="LEKd2ifqKl6_u8c_S4HN-37" value="" style="endArrow=none;html=1;rounded=0;entryX=0.32;entryY=0.992;entryDx=0;entryDy=0;entryPerimeter=0;exitX=0;exitY=0.5;exitDx=0;exitDy=0;" parent="1" source="LEKd2ifqKl6_u8c_S4HN-17" target="OhgYONSp_qSMefyA4z07-8" edge="1">
          <mxGeometry width="50" height="50" relative="1" as="geometry">
            <mxPoint x="330" y="590" as="sourcePoint" />
            <mxPoint x="190" y="503" as="targetPoint" />
          </mxGeometry>
        </mxCell>
        <mxCell id="LEKd2ifqKl6_u8c_S4HN-38" value="1..*" style="edgeLabel;html=1;align=center;verticalAlign=middle;resizable=0;points=[];" parent="LEKd2ifqKl6_u8c_S4HN-37" vertex="1" connectable="0">
          <mxGeometry x="-0.4239" y="-1" relative="1" as="geometry">
            <mxPoint y="1" as="offset" />
          </mxGeometry>
        </mxCell>
        <mxCell id="LEKd2ifqKl6_u8c_S4HN-39" value="" style="endArrow=none;html=1;rounded=0;exitX=0.5;exitY=0;exitDx=0;exitDy=0;entryX=0.177;entryY=0.998;entryDx=0;entryDy=0;entryPerimeter=0;" parent="1" source="LEKd2ifqKl6_u8c_S4HN-20" target="OhgYONSp_qSMefyA4z07-8" edge="1">
          <mxGeometry width="50" height="50" relative="1" as="geometry">
            <mxPoint x="40" y="480" as="sourcePoint" />
            <mxPoint x="92" y="448" as="targetPoint" />
          </mxGeometry>
        </mxCell>
        <mxCell id="LEKd2ifqKl6_u8c_S4HN-40" value="1..*" style="edgeLabel;html=1;align=center;verticalAlign=middle;resizable=0;points=[];" parent="LEKd2ifqKl6_u8c_S4HN-39" vertex="1" connectable="0">
          <mxGeometry x="-0.4239" y="-1" relative="1" as="geometry">
            <mxPoint y="1" as="offset" />
          </mxGeometry>
        </mxCell>
        <mxCell id="LEKd2ifqKl6_u8c_S4HN-41" value="" style="endArrow=none;html=1;rounded=0;exitX=0.75;exitY=1;exitDx=0;exitDy=0;entryX=0;entryY=0.5;entryDx=0;entryDy=0;" parent="1" source="LEKd2ifqKl6_u8c_S4HN-20" target="LEKd2ifqKl6_u8c_S4HN-6" edge="1">
          <mxGeometry width="50" height="50" relative="1" as="geometry">
            <mxPoint x="102" y="668" as="sourcePoint" />
            <mxPoint x="160" y="638" as="targetPoint" />
          </mxGeometry>
        </mxCell>
        <mxCell id="LEKd2ifqKl6_u8c_S4HN-42" value="1..*" style="edgeLabel;html=1;align=center;verticalAlign=middle;resizable=0;points=[];" parent="LEKd2ifqKl6_u8c_S4HN-41" vertex="1" connectable="0">
          <mxGeometry x="-0.4239" y="-1" relative="1" as="geometry">
            <mxPoint y="1" as="offset" />
          </mxGeometry>
        </mxCell>
        <mxCell id="LEKd2ifqKl6_u8c_S4HN-43" value="" style="endArrow=none;html=1;rounded=0;entryX=0;entryY=0.5;entryDx=0;entryDy=0;exitX=1;exitY=0.5;exitDx=0;exitDy=0;" parent="1" source="LEKd2ifqKl6_u8c_S4HN-6" target="UMwlLcL4P6ctVUkQu1In-11" edge="1">
          <mxGeometry width="50" height="50" relative="1" as="geometry">
            <mxPoint x="360" y="730" as="sourcePoint" />
            <mxPoint x="550" y="683" as="targetPoint" />
          </mxGeometry>
        </mxCell>
        <mxCell id="aTinn7qnV_50tRacWaww-1" value="" style="ellipse;whiteSpace=wrap;html=1;" parent="1" vertex="1">
          <mxGeometry x="-390" y="440" width="120" height="80" as="geometry" />
        </mxCell>
        <mxCell id="aTinn7qnV_50tRacWaww-2" value="" style="ellipse;whiteSpace=wrap;html=1;" parent="1" vertex="1">
          <mxGeometry x="1150" y="408" width="120" height="80" as="geometry" />
        </mxCell>
        <mxCell id="MyfHKKLsrZ3GrvG3ysFs-1" value="«interface»&lt;br&gt;&lt;b&gt;IQUANLY&lt;/b&gt;" style="html=1;whiteSpace=wrap;" parent="1" vertex="1">
          <mxGeometry x="30" y="140" width="110" height="50" as="geometry" />
        </mxCell>
        <mxCell id="MyfHKKLsrZ3GrvG3ysFs-2" value="Extends" style="endArrow=block;endSize=16;endFill=0;html=1;rounded=0;exitX=0.25;exitY=0;exitDx=0;exitDy=0;entryX=0.5;entryY=1;entryDx=0;entryDy=0;" parent="1" source="OhgYONSp_qSMefyA4z07-5" target="MyfHKKLsrZ3GrvG3ysFs-1" edge="1">
          <mxGeometry width="160" relative="1" as="geometry">
            <mxPoint x="60" y="250" as="sourcePoint" />
            <mxPoint x="190" y="200" as="targetPoint" />
          </mxGeometry>
        </mxCell>
        <mxCell id="MyfHKKLsrZ3GrvG3ysFs-4" value="«interface»&lt;br&gt;&lt;b&gt;ISINHVIEN&lt;/b&gt;" style="html=1;whiteSpace=wrap;" parent="1" vertex="1">
          <mxGeometry x="630" y="150" width="110" height="50" as="geometry" />
        </mxCell>
        <mxCell id="MyfHKKLsrZ3GrvG3ysFs-5" value="Extends" style="endArrow=block;endSize=16;endFill=0;html=1;rounded=0;exitX=0.5;exitY=0;exitDx=0;exitDy=0;entryX=0.5;entryY=1;entryDx=0;entryDy=0;" parent="1" source="OhgYONSp_qSMefyA4z07-9" target="MyfHKKLsrZ3GrvG3ysFs-4" edge="1">
          <mxGeometry width="160" relative="1" as="geometry">
            <mxPoint x="645" y="250" as="sourcePoint" />
            <mxPoint x="570" y="160" as="targetPoint" />
          </mxGeometry>
        </mxCell>
        <mxCell id="UMwlLcL4P6ctVUkQu1In-4" value="" style="endArrow=none;html=1;rounded=0;exitX=0.75;exitY=0;exitDx=0;exitDy=0;entryX=0.875;entryY=1;entryDx=0;entryDy=0;entryPerimeter=0;" parent="1" source="UMwlLcL4P6ctVUkQu1In-10" target="OhgYONSp_qSMefyA4z07-12" edge="1">
          <mxGeometry width="50" height="50" relative="1" as="geometry">
            <mxPoint x="670" y="620" as="sourcePoint" />
            <mxPoint x="680" y="500" as="targetPoint" />
          </mxGeometry>
        </mxCell>
        <mxCell id="UMwlLcL4P6ctVUkQu1In-5" value="1..1" style="edgeLabel;html=1;align=center;verticalAlign=middle;resizable=0;points=[];" parent="UMwlLcL4P6ctVUkQu1In-4" vertex="1" connectable="0">
          <mxGeometry x="-0.5847" relative="1" as="geometry">
            <mxPoint as="offset" />
          </mxGeometry>
        </mxCell>
        <mxCell id="UMwlLcL4P6ctVUkQu1In-6" value="1..1" style="edgeLabel;html=1;align=center;verticalAlign=middle;resizable=0;points=[];" parent="UMwlLcL4P6ctVUkQu1In-4" vertex="1" connectable="0">
          <mxGeometry x="0.5094" y="-1" relative="1" as="geometry">
            <mxPoint as="offset" />
          </mxGeometry>
        </mxCell>
        <mxCell id="UMwlLcL4P6ctVUkQu1In-10" value="Tài Khoản" style="swimlane;fontStyle=1;align=center;verticalAlign=top;childLayout=stackLayout;horizontal=1;startSize=26;horizontalStack=0;resizeParent=1;resizeParentMax=0;resizeLast=0;collapsible=1;marginBottom=0;whiteSpace=wrap;html=1;" parent="1" vertex="1">
          <mxGeometry x="580" y="630" width="160" height="118" as="geometry" />
        </mxCell>
        <mxCell id="UMwlLcL4P6ctVUkQu1In-11" value="-maTK: string&lt;br style=&quot;border-color: var(--border-color);&quot;&gt;-tenTK: string&lt;br style=&quot;border-color: var(--border-color);&quot;&gt;-matKhau: string&lt;br style=&quot;border-color: var(--border-color);&quot;&gt;-maSV: string" style="text;strokeColor=none;fillColor=none;align=left;verticalAlign=top;spacingLeft=4;spacingRight=4;overflow=hidden;rotatable=0;points=[[0,0.5],[1,0.5]];portConstraint=eastwest;whiteSpace=wrap;html=1;" parent="UMwlLcL4P6ctVUkQu1In-10" vertex="1">
          <mxGeometry y="26" width="160" height="84" as="geometry" />
        </mxCell>
        <mxCell id="UMwlLcL4P6ctVUkQu1In-12" value="" style="line;strokeWidth=1;fillColor=none;align=left;verticalAlign=middle;spacingTop=-1;spacingLeft=3;spacingRight=3;rotatable=0;labelPosition=right;points=[];portConstraint=eastwest;strokeColor=inherit;" parent="UMwlLcL4P6ctVUkQu1In-10" vertex="1">
          <mxGeometry y="110" width="160" height="8" as="geometry" />
        </mxCell>
        <mxCell id="UMwlLcL4P6ctVUkQu1In-14" value="Sách Và Tài Khoản" style="swimlane;fontStyle=1;align=center;verticalAlign=top;childLayout=stackLayout;horizontal=1;startSize=26;horizontalStack=0;resizeParent=1;resizeParentMax=0;resizeLast=0;collapsible=1;marginBottom=0;whiteSpace=wrap;html=1;" parent="1" vertex="1">
          <mxGeometry x="360" y="760" width="160" height="86" as="geometry" />
        </mxCell>
        <mxCell id="UMwlLcL4P6ctVUkQu1In-15" value="+ field: type" style="text;strokeColor=none;fillColor=none;align=left;verticalAlign=top;spacingLeft=4;spacingRight=4;overflow=hidden;rotatable=0;points=[[0,0.5],[1,0.5]];portConstraint=eastwest;whiteSpace=wrap;html=1;" parent="UMwlLcL4P6ctVUkQu1In-14" vertex="1">
          <mxGeometry y="26" width="160" height="26" as="geometry" />
        </mxCell>
        <mxCell id="UMwlLcL4P6ctVUkQu1In-16" value="" style="line;strokeWidth=1;fillColor=none;align=left;verticalAlign=middle;spacingTop=-1;spacingLeft=3;spacingRight=3;rotatable=0;labelPosition=right;points=[];portConstraint=eastwest;strokeColor=inherit;" parent="UMwlLcL4P6ctVUkQu1In-14" vertex="1">
          <mxGeometry y="52" width="160" height="8" as="geometry" />
        </mxCell>
        <mxCell id="UMwlLcL4P6ctVUkQu1In-17" value="+, layThongTin()" style="text;strokeColor=none;fillColor=none;align=left;verticalAlign=top;spacingLeft=4;spacingRight=4;overflow=hidden;rotatable=0;points=[[0,0.5],[1,0.5]];portConstraint=eastwest;whiteSpace=wrap;html=1;" parent="UMwlLcL4P6ctVUkQu1In-14" vertex="1">
          <mxGeometry y="60" width="160" height="26" as="geometry" />
        </mxCell>
        <mxCell id="UMwlLcL4P6ctVUkQu1In-18" value="Extends" style="endArrow=block;endSize=16;endFill=0;html=1;rounded=0;exitX=0.5;exitY=1.5;exitDx=0;exitDy=0;exitPerimeter=0;entryX=0;entryY=0;entryDx=0;entryDy=0;entryPerimeter=0;" parent="1" source="LEKd2ifqKl6_u8c_S4HN-7" target="UMwlLcL4P6ctVUkQu1In-17" edge="1">
          <mxGeometry width="160" relative="1" as="geometry">
            <mxPoint x="220" y="840" as="sourcePoint" />
            <mxPoint x="350" y="790" as="targetPoint" />
          </mxGeometry>
        </mxCell>
        <mxCell id="UMwlLcL4P6ctVUkQu1In-20" value="Extends" style="endArrow=block;endSize=16;endFill=0;html=1;rounded=0;exitX=0.5;exitY=1;exitDx=0;exitDy=0;entryX=1;entryY=0.5;entryDx=0;entryDy=0;" parent="1" source="UMwlLcL4P6ctVUkQu1In-10" target="UMwlLcL4P6ctVUkQu1In-15" edge="1">
          <mxGeometry width="160" relative="1" as="geometry">
            <mxPoint x="590" y="800" as="sourcePoint" />
            <mxPoint x="710" y="860" as="targetPoint" />
          </mxGeometry>
        </mxCell>
        <mxCell id="5TUbFJfUk406nnQpTmoI-1" value="" style="edgeStyle=orthogonalEdgeStyle;rounded=0;orthogonalLoop=1;jettySize=auto;html=1;" parent="1" source="OhgYONSp_qSMefyA4z07-8" target="LEKd2ifqKl6_u8c_S4HN-3" edge="1">
          <mxGeometry relative="1" as="geometry" />
        </mxCell>
      </root>
    </mxGraphModel>
  </diagram>
</mxfile>
